<svg version="1" xmlns="http://www.w3.org/2000/svg" width="1365.333" height="1365.333" viewBox="0 0 1024.000000 1024.000000"><path d="M508.5 79.6c-4.2 1.4-7.4 4.8-7.5 7.7 0 1.1-.5 1.5-1.1 1.1-.8-.4-.8 0 0 1.5.8 1.4.8 2.1.1 2.1-.7 0-.8.6-.1 1.8.7 1.3.6 2.3-.1 3-.9.9-.9 1.2.1 1.2 1.1 0 1.1.3.1 1.5-.8 1-.9 1.5-.1 1.5.7 0 .8.8.1 2.5-.7 1.7-.6 2.5.1 2.5.8 0 .7.5-.1 1.5-.8 1-.9 1.5-.1 1.5.7 0 .8.8.1 2.4-.5 1.3-.6 2.7-.2 3.1 1 1 .9 2.9-.3 3.7-.6.5-.6.8.3.8.6 0 1.2.5 1.2 1.1 0 .5-.6.7-1.2.3-1-.5-1-.4-.1.6s1 1.7.2 2.7c-.7.7-.8 1.3-.3 1.3s.9 1.1.9 2.5-.4 2.5-1 2.5c-.5 0-.3.5.5 1 1.2.8 1.2 1 .1 1-1 0-1.1.3-.2 1.3.8 1 .7 1.7-.1 2.5-.8.8-.9 1.2-.1 1.2 1.2 0 1.2 1.8 0 3.7-.4.6-.3 1.5.3 1.8.8.5.7 1.1-.1 2.1-.9 1.1-.9 1.4.1 1.4s1 .3 0 1.5c-.8 1-.9 1.5-.1 1.5.7 0 .8.8.1 2.5-.7 1.7-.6 2.5.1 2.5.8 0 .7.5-.1 1.5-.8 1-.9 1.5-.1 1.5.7 0 .8.8.1 2.4-.5 1.3-.6 2.7-.2 3.1 1 1 .9 2.9-.3 3.7-.6.5-.6.8.3.8.6 0 1.2.5 1.2 1.1 0 .5-.6.7-1.2.3-1-.6-1-.5-.1.7 1 1.2 1 1.8.1 2.7-.7.7-.8 1.2-.2 1.2.5 0 .9 1.1.9 2.5s-.4 2.5-1 2.5c-.5 0-.3.5.5 1 1.2.8 1.2 1 .1 1-1 0-1.1.3-.2 1.3.8 1 .7 1.7-.1 2.5-.8.8-.9 1.2-.1 1.2 1.2 0 1.2 1.8 0 3.7-.4.6-.3 1.5.3 1.8.8.5.7 1.1-.1 2.1-.9 1.1-.9 1.4.1 1.4s1 .3 0 1.5c-.8 1-.9 1.5-.1 1.5.7 0 .8.8.1 2.5-.7 1.7-.6 2.5.1 2.5.8 0 .7.5-.1 1.5-.8 1-.9 1.5-.1 1.5.7 0 .8.8.1 2.4-.5 1.3-.6 2.7-.2 3.1 1 1 .9 2.9-.3 3.7-.6.5-.6.8.3.8.6 0 1.2.5 1.2 1.1 0 .5-.6.7-1.2.3-1-.6-1-.5-.1.7 1 1.2 1 1.8.1 2.7-.7.7-.8 1.2-.2 1.2.5 0 .9 1.1.9 2.5s-.4 2.5-1 2.5c-.5 0-.3.5.5 1 1.2.8 1.2 1 .1 1-1 0-1.1.3-.2 1.3.8 1 .7 1.7-.1 2.5-.8.8-.9 1.2-.1 1.2 1.2 0 1.2 1.8 0 3.7-.4.6-.3 1.5.3 1.8.8.5.7 1.1-.1 2.1-.9 1.1-.9 1.4.1 1.4s1 .3 0 1.5c-.8 1-.9 1.5-.1 1.5.7 0 .8.8.1 2.5-.7 1.7-.6 2.5.1 2.5.8 0 .7.5-.1 1.5-.8 1-.9 1.5-.1 1.5.7 0 .8.8.1 2.4-.5 1.3-.6 2.7-.2 3.1 1 1 .9 2.9-.3 3.7-.6.5-.6.8.3.8.6 0 1.2.5 1.2 1.1 0 .5-.6.7-1.2.3-1-.6-1-.5-.1.7 1 1.2 1 1.8.1 2.7-.7.7-.8 1.2-.3 1.2.6 0 1 1.1 1 2.5s-.4 2.5-1 2.5c-.5 0-.3.5.5 1 1.2.8 1.2 1 .1 1-1 0-1.1.3-.2 1.3.8 1 .7 1.7-.1 2.5-.8.8-.9 1.2-.1 1.2 1.2 0 1.2 1.8 0 3.7-.4.6-.3 1.5.3 1.8.8.5.7 1.1-.1 2.1-.9 1.1-.9 1.4.1 1.4s1 .3 0 1.5c-.8 1-.9 1.5-.1 1.5.7 0 .8.8.1 2.5-.7 1.7-.6 2.5.1 2.5.8 0 .7.5-.1 1.5-.8 1-.9 1.5-.1 1.5.7 0 .8.8.1 2.4-.5 1.3-.6 2.7-.2 3.1 1 1 .9 2.9-.3 3.7-.6.5-.6.8.3.8.6 0 1.2.5 1.2 1.1 0 .5-.6.7-1.2.3-1-.6-1-.5-.1.7 1 1.2 1 1.8.1 2.7-.7.7-.8 1.2-.3 1.2.6 0 1 1.1 1 2.5s-.4 2.5-1 2.5c-.5 0-.3.5.5 1 1.2.8 1.2 1 .1 1-1 0-1.1.3-.2 1.3.8 1 .7 1.7-.1 2.5-.8.8-.9 1.2-.1 1.2 1.2 0 1.2 1.8 0 3.7-.4.6-.3 1.5.3 1.8.8.5.7 1.1-.1 2.1-.9 1.1-.9 1.4.1 1.4s1 .3 0 1.5c-.8 1-.9 1.5-.1 1.5.7 0 .8.8.1 2.5-.7 1.7-.6 2.5.1 2.5.8 0 .7.5-.1 1.5-.8 1-.9 1.5-.1 1.5.7 0 .8.8.1 2.4-.5 1.3-.6 2.7-.2 3.1 1 1 .9 2.9-.3 3.7-.6.5-.6.8.3.8.6 0 1.2.5 1.2 1.1 0 .5-.6.7-1.2.3-1-.6-1-.5-.1.7 1 1.2 1 1.8.1 2.7-.7.7-.8 1.2-.3 1.2.6 0 1 1.1 1 2.5s-.4 2.5-1 2.5c-.5 0-.3.5.5 1 1.2.8 1.2 1 .1 1-1 0-1.1.3-.2 1.3.8 1 .7 1.7-.1 2.5-.8.8-.9 1.2-.1 1.2 1.2 0 1.2 1.8 0 3.7-.4.6-.3 1.5.3 1.8.8.5.7 1.1-.1 2.1-.9 1.1-.9 1.4.1 1.4s1 .3 0 1.5c-.8 1-.9 1.5-.1 1.5.7 0 .8.8.1 2.5-.7 1.7-.6 2.5.1 2.5.8 0 .7.5-.1 1.5-.8 1-.9 1.5-.1 1.5.7 0 .8.8.1 2.4-.5 1.3-.6 2.7-.2 3.1 1 1 .9 2.9-.3 3.7-.6.5-.6.8.3.8.6 0 1.2.5 1.2 1.1 0 .5-.6.7-1.2.3-1-.5-1-.4-.1.6s1 1.7.2 2.7c-.7.7-.8 1.3-.3 1.3s.9 1.1.9 2.5-.4 2.5-1 2.5c-.5 0-.3.5.5 1 1.2.8 1.2 1 .1 1-1 0-1.1.3-.2 1.3.8 1 .7 1.7-.1 2.5-.8.8-.9 1.2-.1 1.2 1.2 0 1.2 1.8 0 3.7-.4.6-.3 1.5.3 1.8.8.5.7 1.1-.1 2.1-.9 1.1-.9 1.4.1 1.4s1 .3 0 1.5c-.8 1-.9 1.5-.1 1.5.7 0 .8.8.1 2.5-.7 1.7-.6 2.5.1 2.5.8 0 .7.5-.1 1.5-.8 1-.9 1.5-.1 1.5.7 0 .8.8.1 2.4-.5 1.3-.6 2.7-.2 3.1 1 1 .9 2.9-.3 3.7-.6.5-.6.8.3.8.6 0 1.2.5 1.2 1.1 0 .5-.6.7-1.2.3-1-.6-1-.5-.1.7 1 1.2 1 1.8.1 2.7-.7.7-.8 1.2-.2 1.2.5 0 .9 1.1.9 2.5s-.4 2.5-1 2.5c-.5 0-.3.5.5 1 1.2.8 1.2 1 .1 1-1 0-1.1.3-.2 1.3.8 1 .7 1.7-.1 2.5-.8.8-.9 1.2-.1 1.2 1.2 0 1.2 1.8 0 3.6-.3.6-.3 1.4 0 1.8.4.3.7 1.5.8 2.6.1 1.6-.1 1.8-1.4.7-.8-.6-72.1-71.7-158.3-157.9-171-171-159.7-160.4-167.9-157.1-3.5 1.4-7.6 6.7-7.1 9.2.2.8-.1 1-.9.5-.9-.5-.9-.3-.3.7.5.8.9 2.1.9 3 0 .9.6 2.3 1.4 3.2.7 1 1 1.7.5 1.7s-.1.5.9 1.1c.9.6 1.5 1.4 1.2 2-.4.5 0 .9.7.9 2.1 0 9.1 7.7 7.6 8.4-.7.3-.2.3 1.2 0 1.4-.4 2.2-.3 1.8.1-.4.4.6 1.8 2.3 3.2 1.6 1.4 2.6 3 2.2 3.6-.3.7-.3.9.2.5.5-.5 2.5 1 4.6 3.1 2 2.2 4 3.7 4.4 3.3.4-.4.5.4.1 1.8-.3 1.4-.3 1.9 0 1.2.5-1 .9-1 2-.1.8.6 1.1 1.6.7 2.2-.3.6-.1.7.5.3.7-.4 1.2-.2 1.2.4 0 .6.5.8 1 .5.6-.3 1.1-.1 1.1.4.1.6.2 1.5.3 2 0 .5.5 1.3 1 1.8s.6.2.1-.7c-.4-.8 1.3.5 3.8 3 3.1 3.1 4.2 4.7 3.4 5.3-.7.5-.1.5 1.3.1 1.4-.3 2.2-.3 1.8.1-.4.4.6 1.8 2.3 3.2 1.6 1.4 2.6 3 2.2 3.6-.3.7-.3.9.1.5 1.1-.9 4.6 2.3 3.9 3.6-.3.6-.3.8.1.4.4-.3 1.9.3 3.2 1.5 1.8 1.6 2.1 2.3 1.2 3-.8.5-.3.6 1.2.1 1.4-.3 2.2-.3 1.8.1-.4.4.9 2 2.8 3.7 1.9 1.6 3.2 3.4 2.9 3.8-.3.5 0 1.2.6 1.6.8.5.9.3.4-.7-.4-.8 1 .4 3.2 2.5 2.3 2.2 4 4.5 3.9 5-.2.6-.1.7.2.3.2-.4 1-.3 1.8.4.8.6 1.1 1.6.7 2.2-.3.5-.1.7.4.4 1-.6 4.1 2 4.2 3.5.1.5.3.7.5.5.2-.1 1.3.7 2.5 1.7 1.5 1.4 1.8 2.2 1 3.2-.7.8-.7 1.4.1 1.9.6.4 1 .3.9-.2-.4-2.2.3-2.4 2.1-.8 1.6 1.4 1.8 2.1.8 2.7-.8.6-.4.7 1.2.2 1.4-.3 2.2-.4 1.9 0-.3.3 3 4.3 7.5 8.7 4.5 4.5 7.4 7.8 6.6 7.4-.9-.5-1.2-.4-.7.1s1.3 1 1.8 1c.5.1 1.4.2 2 .3.5 0 .7.5.4 1.1-.3.5-.1 1 .5 1s.8.5.4 1.2c-.4.6-.3.8.3.5.6-.4 1.6-.1 2.2.7.7.8.8 1.6.4 1.8-.4.3-.3.4.3.2.7-.1 2.5 1.3 4.2 3.1 1.6 1.9 3.3 3.1 3.7 2.7.4-.4.5.4.1 1.8-.3 1.4-.3 1.9 0 1.2.5-1 .9-1 2-.1.8.6 1.1 1.6.7 2.2-.3.6-.1.7.5.3.7-.4 1.2-.2 1.2.4 0 .6.5.8 1 .5.6-.3 1.1-.1 1.1.4.1.6.2 1.5.3 2 0 .5.5 1.3 1 1.8.6.5.6.2.1-.7-.6-1-.1-.8 1.3.4 1.2 1 1.9 2.4 1.5 3-.3.6-.3.8.1.4.4-.3 1.9.3 3.2 1.5 1.8 1.6 2.1 2.3 1.2 3-.8.5-.3.6 1.2.1 1.4-.3 2.2-.3 1.8.1-.4.4.6 1.8 2.3 3.2 1.6 1.4 2.6 3 2.2 3.6-.3.7-.3.9.2.5.5-.5 2.5 1 4.6 3.1 2 2.2 4 3.7 4.4 3.3.4-.4.5.4.1 1.8-.3 1.4-.3 1.9 0 1.2.5-1 .9-1 2-.1.8.6 1.1 1.6.7 2.2-.3.6-.1.7.5.3.7-.4 1.2-.2 1.2.4 0 .6.5.8 1 .5.6-.3 1.1-.1 1.1.4.1.6.2 1.5.3 2 0 .5.5 1.3 1 1.8.6.5.6.2.1-.7-.6-1-.1-.8 1.3.4 1.2 1 1.9 2.4 1.5 3-.3.6-.3.8.1.4.4-.3 1.9.3 3.2 1.5 1.8 1.6 2.1 2.3 1.2 3-.8.5-.3.6 1.2.1 1.4-.3 2.2-.3 1.8.1-.4.4.6 1.8 2.3 3.2 1.6 1.4 2.6 3 2.2 3.6-.3.7-.3.9.1.5 1.2-1 5.7 3.4 5.1 5-.3.7 0 1 .6.7.5-.4 1.7-.1 2.5.6 1.2 1 1.2 1.4.2 2.1-.8.6-.4.7 1.2.2 1.4-.3 2.2-.4 1.9 0-.7.7 9.9 11.6 11.3 11.6.5 0 .6.4.3 1-.3.5-.1 1 .5 1s.8.5.5 1c-.4.6-.3 1 .2.9 2.4-.4 3.5.2 2.9 1.8-.4 1-.4 1.4 0 1.1.9-.9 3.3 1.5 2.6 2.6-.3.5 0 .6.5.3.6-.4 1.6-.1 2.2.7.9 1.1.9 1.5-.1 2-.7.3-.2.3 1.2 0 1.4-.4 2.2-.3 1.9 0-.9.9 4.3 6.5 5.5 5.8.4-.2.5.6.2 1.9-.3 1.3-.3 1.8 0 1.1.5-1 .9-1 2-.1.8.6 1.1 1.6.7 2.3-.3.6-.3.8.1.4 1-.8 3.6 1.4 2.9 2.4-.2.4.3.5 1.1.2 1.5-.6 2.1.6 1.7 2.9-.1.5.3.6.9.2.5-.3 1 .2 1 1.2 0 1.5.2 1.6 1 .3.9-1.3 1-1.3 1.1 0 .1.8.1 1.9 0 2.3-.1.5.3.6.8.3s1.4 0 2 .8c.9 1.1.9 1.5-.1 2-.7.3-.2.3 1.2 0 1.4-.4 2.2-.3 1.8.1-.4.4.6 1.8 2.3 3.2 1.6 1.4 2.6 3 2.2 3.6-.3.7-.3.9.1.5 1.2-1 5.7 3.4 5.1 5-.3.7 0 1 .6.7.5-.4 1.7-.1 2.5.6 1.2 1 1.2 1.4.2 2.1-.8.6-.4.7 1.2.2 1.4-.3 2.2-.3 1.8.1-.4.4.9 2 2.8 3.7 1.9 1.6 3.2 3.4 2.9 3.8-.3.5 0 1.2.6 1.6.8.5.9.3.4-.7-.5-.8.1-.5 1.4.5 1.2 1.1 1.9 2.6 1.6 3.3-.3.8 0 1.1.6.8 1.3-.8 3.9 1.3 3.5 2.8-.1.7-.1.8.2.4.2-.4 1-.3 1.8.4.8.6 1.1 1.6.7 2.2-.3.5-.2.8.3.5 1.1-.7 3.5 1.7 2.6 2.6-.3.4.1.4 1.1 0 1.6-.6 2.2.5 1.8 2.9-.1.5.3.6.9.2.5-.3 1-.1 1 .5s.5.8 1 .5c.6-.3 1 0 1 .7s1 1.9 2.1 2.7c1.8 1.1 1.9 1.5.8 2.3-1 .6-.6.7 1.1.2 1.4-.3 2.2-.3 1.9 0-.4.4 1.5 2.8 4.2 5.3s4.6 4.9 4.3 5.4c-.3.5-.2.9.3.8.4-.1 1.5-.1 2.3 0 1.3.1 1.3.2 0 1.1-1.3.8-1.2 1 .3 1 1 0 1.5.5 1.2 1-.4.6-.3 1 .2.9 2.3-.4 3.5.2 2.9 1.7-.3.8-.2 1.3.2 1.1 1-.7 3.2 1.9 2.4 2.9-.4.4-.2.4.4.1.7-.4 1.7-.1 2.3.7.7.8.8 1.6.4 1.8-.4.3-.3.3.4.2 1.5-.4 3.6 2.2 2.8 3.5-.3.7 0 .8.9.5.9-.4 1.8.1 2.2 1 .3.9 1.1 1.3 1.6 1 .6-.4.8.3.4 1.7-.3 1.3-.3 1.8 0 1.1.5-1 .9-1 2-.1.8.6 1.1 1.6.7 2.2-.3.5-.2.8.3.5 1.2-.8 3.5 1.7 2.6 2.8-.4.4-.1.4.6 0 1.6-1 4.4 2.3 3.6 4.3-.4 1.1-.2 1.2 1.1.1 1.2-1 1.5-1 1.5.3 0 .8.7 1.8 1.6 2.1.9.3 1.4 1.3 1.1 2.1-.4.9-.1 1.2.7.9.9-.3 1.3.4 1.2 2.3-.1 1.5.3 3.4.8 4 .5.9.4 1.3-.4 1.3-.9 0-1 .3-.1 1.3.8 1 .7 1.7-.1 2.5-.9.9-.9 1.2.1 1.2 1.1 0 1.1.3.1 1.5-.8 1-.9 1.5-.1 1.5.7 0 .8.8.1 2.5-.7 1.7-.6 2.5.1 2.5.8 0 .7.5-.1 1.5-.8 1-.9 1.5-.1 1.5.7 0 .8.8.1 2.4-.5 1.3-.6 2.7-.2 3.1 1 1 .9 2.9-.3 3.7-.6.5-.6.8.3.8.6 0 1.2.5 1.2 1.1 0 .5-.6.7-1.2.3-1-.6-1-.5-.1.7 1 1.2 1 1.8.1 2.7-.7.7-.8 1.2-.2 1.2.5 0 .9 1.1.9 2.5s-.4 2.5-1 2.5c-.5 0-.3.5.5 1 1.2.8 1.2 1 .1 1-1 0-1.1.3-.2 1.3.8 1 .7 1.7-.1 2.5-.8.8-.9 1.2-.1 1.2 1.2 0 1.2 1.8 0 3.7-.4.6-.3 1.5.3 1.8.8.5.7 1.1-.1 2.1-.9 1.1-.9 1.4.1 1.4s1 .3 0 1.5c-.8 1-.9 1.5-.1 1.5.7 0 .8.8.1 2.5-.7 1.7-.6 2.5.1 2.5.8 0 .7.5-.1 1.5-.8 1-.9 1.5-.1 1.5.7 0 .8.8.1 2.4-.5 1.3-.6 2.7-.2 3.1 1 1 .9 2.9-.3 3.7-.6.5-.6.8.3.8.6 0 1.2.5 1.2 1.1 0 .5-.6.7-1.2.3-1-.6-1-.5-.1.7 1 1.2 1 1.8.1 2.7-.7.7-.8 1.2-.2 1.2.5 0 .9 1.1.9 2.5s-.4 2.5-1 2.5c-.5 0-.3.5.5 1 1.2.8 1.2 1 .1 1-1 0-1.1.3-.2 1.3.8 1 .7 1.7-.1 2.5-.8.8-.9 1.2-.1 1.2 1.2 0 1.2 1.8 0 3.7-.4.6-.3 1.5.3 1.8.8.5.7 1.1-.1 2.1-.9 1.1-.9 1.4.1 1.4s1 .3 0 1.5c-.8 1-.9 1.5-.1 1.5.7 0 .8.8.1 2.5-.7 1.7-.6 2.5.1 2.5.8 0 .7.5-.1 1.5-.8 1-.9 1.5-.1 1.5.7 0 .8.8.1 2.4-.5 1.3-.6 2.7-.2 3.1 1 1 .9 2.9-.3 3.7-.6.5-.6.8.3.8.6 0 1.2.5 1.2 1.1 0 .5-.6.7-1.2.3-1-.6-1-.5-.1.7 1 1.2 1 1.8.1 2.7-.7.7-.8 1.2-.2 1.2.5 0 .9 1.1.9 2.5s-.4 2.5-1 2.5c-.5 0-.3.5.5 1 1.2.8 1.2 1 .1 1-1 0-1.1.3-.2 1.3.8 1 .7 1.7-.1 2.5-.8.8-.9 1.2-.1 1.2 1.2 0 1.2 1.8 0 3.7-.4.6-.3 1.5.3 1.8.8.5.7 1.1-.1 2.1-.9 1.1-.9 1.4.1 1.4s1 .3 0 1.5c-.8 1-.9 1.5-.1 1.5.7 0 .8.8.1 2.5-.7 1.7-.6 2.5.1 2.5.8 0 .7.5-.1 1.5-.8 1-.9 1.5-.1 1.5.7 0 .8.8.1 2.4-.5 1.3-.6 2.7-.2 3.1 1 1 .9 2.9-.3 3.7-.6.5-.6.8.3.8.6 0 1.2.5 1.2 1.1 0 .5-.6.7-1.2.3-1-.6-1-.5-.1.7 1 1.2 1 1.8.1 2.7-.7.7-.8 1.2-.2 1.2.5 0 .9 1.1.9 2.5s-.4 2.5-1 2.5c-.5 0-.3.5.5 1 1.2.8 1.2 1 .1 1-1 0-1.1.3-.2 1.3.8 1 .7 1.7-.1 2.5-.8.8-.9 1.2-.1 1.2 1.2 0 1.2 1.8 0 3.7-.4.6-.3 1.5.3 1.8.8.5.7 1.1-.1 2.1-.9 1.1-.9 1.4.1 1.4s1 .3 0 1.5c-.8 1-.9 1.5-.1 1.5.7 0 .8.8.1 2.5-.7 1.7-.6 2.5.1 2.5.8 0 .7.5-.1 1.5-.8 1-.9 1.5-.1 1.5.7 0 .8.8.1 2.4-.5 1.3-.6 2.7-.2 3.1 1 1 .9 2.9-.3 3.7-.6.5-.6.8.3.8.6 0 1.2.5 1.2 1.1 0 .5-.6.7-1.2.3-1-.6-1-.5-.1.7 1 1.2 1 1.8.1 2.7-.7.7-.8 1.2-.3 1.2.6 0 1 1.1 1 2.5s-.4 2.5-1 2.5c-.5 0-.3.5.5 1 1.2.8 1.2 1 .1 1-1 0-1.1.3-.2 1.3.8 1 .7 1.7-.1 2.5-.8.8-.9 1.2-.1 1.2 1.2 0 1.2 1.8 0 3.7-.4.6-.3 1.5.3 1.8.8.5.7 1.1-.1 2.1-.9 1.1-.9 1.4.1 1.4s1 .3 0 1.5c-.8 1-.9 1.5-.1 1.5.7 0 .8.8.1 2.5-.7 1.7-.6 2.5.1 2.5.8 0 .7.5-.1 1.5-.8 1-.9 1.5-.1 1.5.7 0 .8.8.1 2.4-.5 1.3-.6 2.7-.2 3.1 1 1 .9 2.9-.3 3.7-.6.5-.6.8.3.8.6 0 1.2.5 1.2 1.1 0 .5-.6.7-1.2.3-1-.6-1-.5-.1.7 1 1.2 1 1.8.1 2.7-.7.7-.8 1.2-.3 1.2.6 0 1 1.1 1 2.5s-.4 2.5-1 2.5c-.5 0-.3.5.5 1 1.2.8 1.2 1 .1 1-1 0-1.1.3-.2 1.3.8 1 .7 1.7-.1 2.5-.8.8-.9 1.2-.1 1.2 1.2 0 1.2 1.8 0 3.7-.4.6-.3 1.5.3 1.8.8.5.7 1.1-.1 2.1-.9 1.1-.9 1.4.1 1.4s1 .3 0 1.5c-.8 1-.9 1.5-.1 1.5.7 0 .8.8.1 2.5-.7 1.7-.6 2.5.1 2.5.8 0 .7.5-.1 1.5-.8 1-.9 1.5-.1 1.5.7 0 .8.8.1 2.4-.5 1.3-.6 2.7-.2 3.1 1 1 .9 2.9-.3 3.7-.6.5-.6.8.3.8.6 0 1.2.5 1.2 1.1 0 .5-.6.7-1.2.3-1-.6-1-.5-.1.7 1 1.2 1 1.8.1 2.7-.7.7-.8 1.2-.3 1.2.6 0 1 1.1 1 2.5s-.4 2.5-1 2.5c-.5 0-.3.5.5 1 1.2.8 1.2 1 .1 1-1 0-1.1.3-.2 1.3.8 1 .7 1.7-.1 2.5-.8.8-.9 1.2-.1 1.2 1.2 0 1.2 1.8 0 3.7-.4.6-.3 1.5.3 1.8.8.5.7 1.1-.1 2.1-.9 1.1-.9 1.4.1 1.4s1 .3 0 1.5c-.8 1-.9 1.5-.1 1.5.7 0 .8.8.1 2.5-.7 1.7-.6 2.5.1 2.5.8 0 .7.5-.1 1.5-.8 1-.9 1.5-.1 1.5.7 0 .8.8.1 2.4-.5 1.3-.6 2.7-.2 3.1 1 1 .9 2.9-.3 3.7-.6.5-.6.8.3.8.6 0 1.2.5 1.2 1.1 0 .5-.6.7-1.2.3-1-.6-1-.5-.1.7 1 1.2 1 1.8.1 2.7-.7.7-.8 1.2-.3 1.2.6 0 1 1.1 1 2.5s-.4 2.5-1 2.5c-.5 0-.3.5.5 1 1.2.8 1.2 1 .1 1-1 0-1.1.3-.2 1.3.8 1 .7 1.7-.1 2.5-.8.8-.9 1.2-.1 1.2 1.2 0 1.2 1.8 0 3.7-.4.6-.3 1.5.3 1.8.8.5.7 1.1-.1 2.1-.9 1.1-.9 1.4.1 1.4s1 .3 0 1.5c-.8 1-.9 1.5-.1 1.5.7 0 .8.8.1 2.5-.7 1.7-.6 2.5.1 2.5.8 0 .7.5-.1 1.5-.8 1-.9 1.5-.1 1.5.7 0 .8.8.1 2.5-.6 1.6-.6 2.6.1 3.1.7.4.7 1 0 1.8-.6.7-.7 1.6-.3 2 .4.4.7 1.1.7 1.4.1 2.1 3.3 7.3 4.7 7.8 1 .3 1.8.9 1.8 1.3 0 1.6 9.9.5 11.9-1.3 1.1-1 2.5-1.5 3.2-1 .7.4 1 .3.5-.4-.3-.6 0-1.7.7-2.4.8-.7 1.2-2.1.9-3.2-.4-1.4-.2-1.7.8-1.1.9.6 1.1.4.5-.5-1.1-1.8-1.2-10-.2-10 .5 0 .5-.5.1-1.2-1-1.6-1.1-46.8-.1-46.8.5 0 .5-.5.1-1.2-1-1.6-1.1-46.8-.1-46.8.5 0 .5-.5.1-1.2-1-1.6-1.1-46.8-.1-46.8.5 0 .5-.5.1-1.2-1-1.6-1.1-46.8-.1-46.8.5 0 .5-.5.1-1.2-1-1.6-1.1-46.8-.1-46.8.5 0 .5-.5.1-1.2-1-1.6-1.1-46.8-.1-46.8.5 0 .5-.5.1-1.2-1-1.6-1.1-46.8-.1-46.8.5 0 .5-.5.1-1.2-.4-.6-.7-9.5-.7-19.7.2-25.4.2-25.3 1.3-24.6.6.4.7 1.1.4 1.7-.4.6-.3.8.3.5 1.2-.7 9.4 7.8 8.5 8.9-.4.4-.2.4.4.1.7-.4 1.7-.1 2.3.7.9 1.1.9 1.5-.1 2-.7.3-.2.3 1.1 0 1.4-.4 2.1-.2 1.7.4-.3.5.1 1.3 1 1.6.9.3 1.4 1.3 1.1 2.1-.4.9-.1 1.2.9.8.7-.3 1.4 0 1.4.7 0 .6.5.8 1.1.4.8-.4.9.1.5 1.7-.3 1.3-.3 1.8 0 1.1.5-1 .9-1 2-.1.8.6 1.1 1.6.7 2.2-.3.5-.2.8.3.5 1.1-.7 3.5 1.7 2.6 2.6-.3.4.1.4 1.1 0 1.6-.6 2.2.5 1.8 2.9-.1.5.3.6.9.2.5-.3 1 .2 1 1.2 0 1.5.2 1.6 1 .3.9-1.3 1-1.3 1.1 0 .1.8.1 1.9 0 2.3-.1.5.3.6.8.3s1.4 0 2 .8c.9 1.1.9 1.5-.1 2-.7.3-.2.3 1.2 0 1.4-.4 2.2-.3 1.8.1-.4.4.6 1.8 2.3 3.2 1.6 1.4 2.6 3 2.2 3.6-.3.7-.3.9.1.5 1.1-.9 5.7 3.4 5.2 4.9-.3.7.1 1 1 .6.7-.3 1.4 0 1.4.7 0 .6.5.8 1.1.4.8-.4.9.1.5 1.7-.3 1.3-.3 1.8 0 1.1.5-1 .9-1 2-.1.8.6 1.1 1.6.7 2.3-.3.6-.3.8.1.4 1-.8 3.6 1.4 2.9 2.4-.2.4.3.5 1.1.2 1.5-.6 2.1.6 1.7 2.9-.1.5.3.6.9.2.5-.3 1 .2 1 1.2 0 1.5.2 1.6 1 .3.9-1.3 1-1.3 1.1 0 .1.8.1 1.9 0 2.3-.1.5.3.6.8.3s1.4 0 2 .8c.9 1.1.9 1.5-.1 2-.7.3-.2.3 1.2 0 1.4-.4 2.2-.3 1.8.1-.4.4.6 1.8 2.3 3.2 1.6 1.4 2.6 3 2.2 3.6-.3.7-.3.9.1.5 1.2-1 5.7 3.4 5.1 5-.3.7 0 1 .6.7.5-.4 1.7-.1 2.5.6 1.2 1 1.2 1.4.2 2.1-.8.6-.4.7 1.2.2 1.4-.3 2.2-.4 1.9 0-.7.7 9.9 11.6 11.3 11.6.5 0 .6.4.3 1-.3.5-.1 1 .5 1s.8.5.5 1c-.4.6-.3 1 .2.9 2.4-.4 3.5.2 2.9 1.8-.4 1-.4 1.4 0 1.1.9-.9 3.3 1.5 2.6 2.6-.3.5 0 .6.5.3.6-.4 1.6-.1 2.2.7.7.8.8 1.6.4 1.8-.4.3-.3.3.4.2 1.5-.4 3.6 2.2 2.8 3.5-.3.7 0 .8.9.5.9-.4 1.8.1 2.2 1 .3.9 1.1 1.3 1.6 1 .6-.4.8.3.4 1.7-.3 1.3-.3 1.8 0 1.1.5-1 .9-1 2-.1.8.6 1.1 1.6.7 2.3-.3.6-.3.8.1.4 1-.8 3.6 1.4 2.9 2.4-.2.4.3.5 1.1.2 1.5-.6 2.1.6 1.7 2.9-.1.5.3.6.9.2.5-.3 1-.1 1 .5s.3.9.8.7c.4-.3 1.6.7 2.6 2.1 1.2 1.5 1.4 2.2.5 1.7-.8-.5-.6 0 .4 1.2 1.1 1.3 1.4 2.3.8 2.7-.6.4-.6 1.8 0 3.8.5 2 .5 3.6-.2 4.4-.7.8-.6 1.3.2 1.6.9.3.9.9.1 2.4s-.8 2.4 0 3.2c.9.9.8 1.2-.3 1.2s-1.2.2 0 .9c1 .6 1 1.3.3 2.8-.8 1.4-.8 2.3-.1 3 .8.8.8 1.3 0 1.7-.7.4-.7 1.5-.1 3.1s.6 2.7-.1 3.1c-.6.3-.6 1.1-.1 1.7.9 1.3.9 7.4-.1 8.3-.3.3-.2 1.7.3 3 .6 1.4.6 2.6-.1 2.9-.5.4-.6 1.2-.2 1.8 1.1 1.8 1 7.7-.2 7.7-.5 0-.4.4.4.9 1 .6 1 1.3.3 2.8-.8 1.4-.8 2.3 0 3.1.9.9.8 1.2-.2 1.2-1.2 0-1.3.2-.1.9 1 .6 1 1.3.3 2.8-.8 1.5-.8 2.3.1 3.3s.9 1.4-.1 1.7c-.6.3-.9.9-.6 1.4 1 1.6 1.2 10.9.2 10.9-.5 0-.6.5-.3 1.1 1 1.5 1.3 10.9.4 10.9-.5 0-.4 1.2.1 2.6.7 1.8.7 3.1 0 3.9-.8.9-.7 1.4.1 1.7.9.3.9.9 0 2.5-.6 1.2-.8 2.4-.3 2.6.4.3.7 2.7.6 5.4-.2 6.4 2 10.7 6.2 12.3 1.8.7 3.1 1.7 2.8 2.2-.3.4.6.4 1.9-.1 1.4-.6 2.8-.7 3.1-.4.3.3 1.7-.2 3.1-1.1 1.4-.9 3.1-1.4 3.7-1 .7.4.8.3.4-.4s-.2-1.2.4-1.2c.6 0 .8-.5.5-1-.3-.6 0-1.2.7-1.5.9-.4 1.3-2 1.3-4.3-.1-2 .3-4.3.8-5 .5-.6.6-1.2.1-1.2-1 0-1.1-5.1-.1-6.7.4-.6.1-1.4-.5-1.6-1-.4-.9-.8.2-1.6 1.2-.8 1.2-1.1.1-1.1-1 0-1.1-.3-.2-1.4.7-.8.8-1.6.4-1.9-1-.6-.8-11 .1-12.6.4-.6.3-1.1-.1-1.1-1.5 0-.9-9.4.7-10.8 1.3-1.1 1.3-1.1 0-.7-1.1.4-1.5-.3-1.4-2.8.1-1.9.4-3.9.8-4.5.4-.7.4-1.2-.1-1.2-1 0-.9-5.2.1-6.8.4-.7.4-1.2-.1-1.2-1 0-.8-9.3.1-10.9.4-.6.3-1.1-.2-1.1-1 0-.8-7.3.3-8.9.3-.6.2-1.1-.3-1.1s-.8-1.2-.6-2.8c.2-1.5.4-4.6.5-7 .2-4 .3-4.1 2.1-2.6 1 1 1.8 2.4 1.8 3.2 0 .9.3 1.2.7.9.9-.9 3.2 1.2 2.9 2.6-.1.7-.1.8.2.4.2-.4 1-.3 1.8.4.8.6 1.1 1.6.7 2.3-.3.6-.3.8.1.4 1-.8 3.6 1.4 2.9 2.4-.2.4.3.5 1.1.2 1.5-.6 2.1.6 1.7 2.9-.1.5.3.6.9.2.5-.3 1-.1 1 .5s.5.8 1 .5c.6-.3 1 0 1 .7s1 1.9 2.1 2.7c1.8 1.1 1.9 1.5.8 2.3-1 .6-.6.7 1.1.2 1.4-.3 2.2-.3 1.9 0-.4.4 1.5 2.8 4.2 5.3s4.6 4.9 4.3 5.4c-.3.5-.2.9.3.8.4-.1 1.5-.1 2.3 0 1.3.1 1.3.2 0 1.1-1.3.8-1.2 1 .3 1 1 0 1.5.5 1.2 1-.4.6-.3 1 .2.9 2.4-.4 3.5.2 2.9 1.8-.4 1-.4 1.4 0 1.1.9-.9 3.3 1.5 2.6 2.6-.3.5 0 .6.5.3.6-.4 1.6-.1 2.2.7.7.8.8 1.6.4 1.8-.4.3-.3.4.3.2.7-.1 2.5 1.3 4.2 3.1 1.6 1.9 3.3 3.1 3.7 2.7.4-.4.5.4.1 1.8-.3 1.4-.3 1.9 0 1.2.5-1 .9-1 2-.1.8.6 1.1 1.6.7 2.2-.3.6-.1.7.5.3.7-.4 1.2-.2 1.2.4 0 .6.5.8 1 .5.6-.3 1.1-.1 1.1.4.1.6.2 1.5.3 2 0 .5.5 1.3 1 1.8.6.5.6.2.1-.7-.6-1-.1-.8 1.3.4 1.2 1 1.9 2.4 1.5 3-.3.6-.3.8.1.4.4-.3 1.9.3 3.2 1.5 1.8 1.6 2.1 2.3 1.2 3-.8.5-.3.6 1.2.1 1.4-.3 2.2-.3 1.8.1-.4.4.6 1.8 2.3 3.2 1.6 1.4 2.6 3 2.2 3.6-.3.7-.3.9.2.5.5-.5 2.5 1 4.6 3.1 2 2.2 4 3.7 4.4 3.3.4-.4.5.4.1 1.8-.3 1.4-.3 1.9 0 1.2.5-1 .9-1 2-.1.8.6 1.1 1.6.7 2.2-.3.6-.1.7.5.3.7-.4 1.2-.2 1.2.4 0 .6.5.8 1 .5.6-.3 1.1-.1 1.1.4.1.6.2 1.5.3 2 0 .5.5 1.3 1 1.8.6.5.6.2.1-.7-.6-1-.1-.8 1.3.4 1.2 1 1.9 2.3 1.6 2.8-.3.4 0 .7.8.6.7-.2 1.2.3 1 1-.1.8.2 1.1.7.8.5-.3 1.4 0 2 .8.9 1.1.9 1.5-.1 2-.7.3-.2.3 1.2 0 1.4-.4 2.2-.3 1.8.1-.4.4.6 1.8 2.3 3.2 1.6 1.4 2.6 3 2.2 3.6-.3.7-.3.9.1.5 1.2-1 5.7 3.4 5.1 5-.3.7 0 1 .6.7.5-.4 1.7-.1 2.5.6 1.2 1 1.2 1.4.2 2.1-.8.6-.4.7 1.2.2 1.4-.3 2.2-.3 1.8.1-.4.4.9 2 2.8 3.7 1.9 1.6 3.2 3.4 2.9 3.8-.3.5 0 1.2.6 1.6.8.5.9.3.4-.7-.4-.8 1 .4 3.2 2.5 2.3 2.2 4 4.5 3.9 5-.2.6-.1.7.2.3.2-.4 1-.3 1.8.4.8.6 1.1 1.6.7 2.2-.3.5-.2.8.3.5 1.2-.7 6.5 4.7 5.6 5.7-.4.4-.2.5.4.3.5-.1 2.4 1 4.2 2.7 2.3 2.1 2.8 3.2 1.9 3.8-.8.6-.7.7.5.4.9-.3 2.2.1 2.9.9 2.3 2.8 6.8 4.4 11.3 4.2 2.4-.2 4.4-.5 4.3-.8-.4-1.1 3.7-4.8 4.7-4.3.6.3.8.3.4-.1-.3-.4-.2-2.1.4-3.7 2.2-6.5 3.2-5.4-88.3-97-47.8-47.8-86.9-87.6-87-88.4-.3-5.8-.1-9.4.5-10.3.4-.7.3-1.2-.1-1.2-1.5 0-.9-9.4.7-10.8 1.3-1.1 1.3-1.1 0-.7-1.1.4-1.5-.3-1.4-2.8.1-1.9.4-3.9.8-4.5.4-.7.4-1.2-.1-1.2-1 0-.9-5.2 0-6.7.4-.6.1-1.4-.5-1.6-1-.4-.9-.8.2-1.6 1.2-.8 1.2-1.1.1-1.1-1 0-1.1-.3-.2-1.4.7-.8.8-1.6.4-1.9-1-.6-.8-11 .1-12.6.4-.6.3-1.1-.1-1.1-1.5 0-.9-9.4.7-10.8 1.3-1.1 1.3-1.1 0-.7-1.1.4-1.5-.3-1.4-2.8.1-1.9.4-3.9.8-4.5.4-.7.4-1.2-.1-1.2-1 0-.9-5.2.1-6.8.4-.7.4-1.2-.1-1.2-1 0-.9-5.2.1-6.8.4-.7.4-1.2-.1-1.2-1 0-.9-5.2 0-6.7.4-.6.1-1.4-.5-1.6-1-.4-.9-.8.2-1.6 1.2-.8 1.2-1.1.1-1.1-1 0-1.1-.3-.2-1.4.7-.8.8-1.6.4-1.9-1-.6-.8-11 .1-12.6.4-.6.3-1.1-.1-1.1-1.5 0-.9-9.4.7-10.8 1.3-1.1 1.3-1.1 0-.7-1.1.4-1.5-.3-1.4-2.8.1-1.9.4-3.9.8-4.5.4-.7.4-1.2-.1-1.2-1 0-.9-5.2.1-6.8.4-.7.4-1.2-.1-1.2-1 0-.9-5.2.1-6.8.4-.7.4-1.2-.1-1.2-1 0-.9-5.2 0-6.7.4-.6.1-1.4-.5-1.6-1-.4-.9-.8.2-1.6 1.2-.8 1.2-1.1.1-1.1-1 0-1.1-.3-.2-1.4.7-.8.8-1.6.4-1.9-1-.6-.8-11 .1-12.6.4-.6.3-1.1-.1-1.1-1.5 0-.9-9.4.7-10.8 1.3-1.1 1.3-1.1 0-.7-1.1.4-1.5-.3-1.4-2.8.1-1.9.4-3.9.8-4.5.4-.7.4-1.2-.1-1.2-1 0-.9-5.2.1-6.8.4-.7.4-1.2-.1-1.2-1 0-.9-5.2.1-6.8.4-.7.4-1.2-.1-1.2-1 0-.9-5.2 0-6.7.4-.6.1-1.4-.5-1.6-1-.4-.9-.8.2-1.6 1.2-.8 1.2-1.1.1-1.1-1 0-1.1-.3-.2-1.4.7-.8.8-1.6.4-1.9-1-.6-.8-11 .1-12.6.4-.6.3-1.1-.1-1.1-1.5 0-.9-9.4.7-10.8 1.3-1.1 1.3-1.1 0-.7-1.1.4-1.5-.3-1.4-2.8.1-1.9.4-3.9.8-4.5.4-.7.4-1.2-.1-1.2-1 0-.9-5.2 0-6.7.4-.6.1-1.4-.5-1.6-1-.4-.9-.8.2-1.6 1.2-.8 1.2-1.1.1-1.1-1 0-1.1-.3-.2-1.4.7-.8.8-1.6.4-1.9-1-.6-.8-11 .1-12.6.4-.6.3-1.1-.1-1.1-1.5 0-.9-9.4.7-10.8 1.3-1 1.3-1.1-.3-.6-1.9.7-2.1-1.5-.2-2.8.6-.5.5-.8-.4-.8-1 0-1.1-.3-.2-1.4.7-.8.8-1.6.4-1.9-1-.6-.8-11 .1-12.6.4-.6.3-1.1-.1-1.1-1.5 0-.9-9.4.7-10.8 1.3-1.1 1.3-1.1 0-.7-1.2.4-1.5-.5-1.4-4.9.1-3 .5-5.9.8-6.5.4-.6.3-1.1-.2-1.1-1 0-.8-7.3.3-8.9.3-.6.2-1.1-.3-1.1-1 0-.9-3 .2-4.8.4-.6.4-1.2-.1-1.2-1 0-.8-9.3.1-10.9.4-.6.1-1.1-.6-1.1-.9 0-.9-.3.2-1 .8-.5 1-1 .5-1-.6 0-1-1.2-.9-2.8.2-4.2-2.5-8.8-6.5-11-3.5-1.9-4.8-2-10-.7-3.6.9-8.3 6.8-6.9 8.7.1.2-.4 1.2-1 2.4-.8 1.6-.8 2.4 0 3.2.9.9.8 1.2-.2 1.2-1.2 0-1.3.2-.1.9 1 .6 1 1.3.3 2.8-.8 1.4-.8 2.3-.1 3 .8.8.8 1.3 0 1.7-.7.4-.7 1.5-.1 3.1s.6 2.7-.1 3.1c-.6.3-.6 1.1-.1 1.7.9 1.3.9 7.4-.1 8.3-.3.3-.2 1.7.3 3 .6 1.4.6 2.6-.1 2.9-.5.4-.6 1.2-.2 1.8 1.1 1.8 1 7.7-.2 7.7-.5 0-.4.4.4.9 1 .6 1 1.3.3 2.8-.8 1.4-.8 2.3 0 3.1.9.9.8 1.2-.2 1.2-1.2 0-1.3.2-.1.9 1 .6 1 1.3.3 2.8-.8 1.5-.8 2.3.1 3.3s.9 1.4-.1 1.7c-.6.3-.9.9-.6 1.4 1 1.6 1.2 10.9.2 10.9-.5 0-.6.5-.3 1.1 1 1.5 1.3 10.9.4 10.9-.5 0-.4 1.2.1 2.6.7 1.8.7 3.1 0 3.9-.8.9-.7 1.4.1 1.7.9.3.9.9.1 2.4s-.8 2.4 0 3.2c.9.9.8 1.2-.2 1.2-1.2 0-1.3.2-.1.9 1 .6 1 1.3.3 2.8-.8 1.5-.8 2.3.1 3.3s.9 1.4-.1 1.7c-.6.3-.9.9-.6 1.4 1 1.6 1.2 10.9.2 10.9-.5 0-.6.5-.3 1.1 1.1 1.6 1.3 10.9.3 10.9-.5 0-.6.4-.3 1 1.1 1.8 1.4 7 .4 7-.6 0-.7.5-.4 1.1 1.1 1.6 1.3 10.9.3 10.9-.5 0-.6.5-.3 1.1 1.1 1.6 1.3 10.9.3 10.9-.5 0-.6.4-.3 1 1.1 1.8 1.4 7 .4 7-.6 0-.7.5-.4 1.1 1.1 1.6 1.3 10.9.3 10.9-.5 0-.6.5-.3 1.1 1.1 1.6 1.3 10.9.3 10.9-.5 0-.6.4-.3 1 1.1 1.8 1.4 7 .4 7-.6 0-.7.5-.4 1.1 1.1 1.6 1.3 10.9.3 10.9-.5 0-.6.5-.3 1.1 1.1 1.6 1.3 10.9.3 10.9-.5 0-.6.4-.3 1 1.1 1.8 1.4 7 .4 7-.6 0-.7.5-.4 1.1 1.1 1.6 1.3 10.9.3 10.9-.5 0-.6.5-.3 1.1 1.1 1.6 1.3 10.9.3 10.9-.5 0-.6.4-.3 1 1.1 1.8 1.4 7 .4 7-.6 0-.7.5-.4 1.1 1.1 1.6 1.3 10.9.3 10.9-.5 0-.6.5-.3 1.1 1.1 1.6 1.3 10.9.3 10.9-.5 0-.6.4-.3 1 1.1 1.8 1.4 7 .4 7-.6 0-.7.5-.4 1.1 1.1 1.6 1.3 10.9.3 10.9-.5 0-.6.5-.3 1.1 1.1 1.6 1.3 10.9.3 10.9-.5 0-.6.5-.2 1.2 1 1.6 1.1 18.8.1 18.8-.4 0-.5.5-.2 1.1 1.1 1.6 1.3 10.9.3 10.9-.5 0-.6.4-.3 1 .3.5.8 2.3 1 4 .3 2.8.2 3-1.3 1.8-.9-.7-31.1-30.8-67.2-66.8l-65.5-65.5v-5.3c0-2.9.4-5.2.8-5.2.5 0 .5-.5.1-1.2-1-1.6-1.1-34.8-.1-34.8.5 0 .5-.5.1-1.2-1-1.6-1.1-46.8-.1-46.8.5 0 .5-.5.1-1.2-1-1.6-1.1-46.8-.1-46.8.5 0 .5-.5.1-1.2-1-1.6-1.1-46.8-.1-46.8.5 0 .5-.5.1-1.2-1-1.6-1.1-46.8-.1-46.8.5 0 .5-.5.1-1.2-1-1.6-1.1-46.8-.1-46.8.5 0 .5-.5.1-1.2-1-1.6-1.1-46.8-.1-46.8.5 0 .5-.5.1-1.2-1-1.6-1.1-46.8-.1-46.8.5 0 .5-.5.1-1.2-.4-.6-.7-6.8-.6-13.7.3-19.5.3-18.6-.9-22.7-2-6.7-8.8-10.1-15.4-7.8z"/><path d="M180.5 202c-.3.6.1.7.9.4 1.8-.7 2.1-1.4.7-1.4-.6 0-1.3.4-1.6 1zM212.5 234c-.3.6.1.7.9.4 1.8-.7 2.1-1.4.7-1.4-.6 0-1.3.4-1.6 1zM228.5 250c-.3.6.1.7.9.4 1.8-.7 2.1-1.4.7-1.4-.6 0-1.3.4-1.6 1zM260.5 282c-.3.6.1.7.9.4 1.8-.7 2.1-1.4.7-1.4-.6 0-1.3.4-1.6 1zM191 321.7c-6.7 2.7-7.5 5-7.5 21 0 8.9-.4 14.3-1 14.3-.7 0-.7.3 0 .8.6.4 1 8.2 1 19.7s-.4 19.3-1 19.7c-.6.5-.6.8.1.8 1.4 0 1.4 3 0 3-.7 0-.7.3-.1.8.6.4 1 2.9 1 5.7 0 2.7-.4 5.3-1 5.7-.7.5-.7.8 0 .8.6 0 1 3.1 1 7.2 0 4-.4 7.6-1 8-.6.5-.6.8.1.8.6 0 1.1.7 1.1 1.5s-.5 1.5-1.1 1.5c-.7 0-.7.3-.1.8.6.4 1 2.9 1 5.7 0 2.7-.4 5.3-1 5.7-.7.5-.7.8 0 .8.6 0 1 4.5 1 11.5s-.4 11.5-1 11.5c-.7 0-.7.3 0 .8.6.4 1 9.5 1 23.7s-.4 23.3-1 23.7c-.7.5-.7.8 0 .8.6 0 1 8.5 1 23.5s-.4 23.5-1 23.5c-.7 0-.7.3 0 .8.6.4 1 5.5 1 11.7 0 6.2-.4 11.3-1 11.7-.6.5-.6.8.1.8.6 0 1.1.7 1.1 1.5s-.5 1.5-1.1 1.5c-.7 0-.7.3-.1.8.6.4 1 2.9 1 5.7 0 2.7-.4 5.3-1 5.7-.7.5-.7.8 0 .8.6 0 1 3.1 1 7.2 0 4-.4 7.6-1 8-.6.5-.6.8.1.8.6 0 1.1.7 1.1 1.5s-.5 1.5-1.1 1.5c-.7 0-.7.3-.1.8.6.4 1 2.9 1 5.7 0 2.7-.4 5.3-1 5.7-.7.5-.7.8 0 .8.6 0 1 7.1 1 19.2 0 11.7-.4 19.6-1 20-.7.5-.7.8 0 .8.6 0 1 10.2.9 28.7-.1 18.9.2 29.5.9 30.8.6 1.1 1 2.3.9 2.7-.1.5.4.8 1.1.8.7 0 1.9.9 2.7 1.9.7 1.1 1.8 1.7 2.3 1.4.5-.3 1.3.1 1.8.8.5.8.9.9.9.4 0-.6 2-1 4.4-1 2.5.1 4.2-.3 3.9-.8-.6-1 1.7-3.8 2.7-3.2 1.6 1 2.4-5.4 2.5-20.6.1-8.5.5-16 .9-16.7.4-.7.2-1.2-.5-1.2-.8 0-.8-.4.1-1.5.7-.8.8-1.5.3-1.5-1 0-1-6 .1-7.8.4-.7.2-1.2-.5-1.2-.8 0-.8-.4.1-1.5 1-1.2 1-1.5-.1-1.5-1.2 0-1.2-.2-.1-.9.8-.4 1.4-1.2 1.4-1.6 0-.4-.6-1.2-1.4-1.6-1-.7-1-.9 0-.9s1-.5.2-2c-.8-1.4-.8-2 0-2s.8-.6 0-2c-.6-1.2-.7-2-.1-2 .5 0 .7-1 .3-2.2-.4-1.6-.2-1.9.9-1.4.8.4.6.1-.3-.7-1.6-1.3-1.6-1.5 0-3.1s1.6-1.7-.3-1c-1.8.7-1.8.6-.6-.9 1-1.3 1.1-1.7.1-1.7-.9 0-.7-.7.5-2 1.3-1.4 1.4-1.9.4-1.5-1 .4-1.4-.3-1.4-3 0-1.9.4-3.5.8-3.5.5 0 .5-.6.1-1.2-1.2-1.9-1.2-4.8-.1-4.8.5 0 .4-.7-.3-1.5-.9-1.1-.9-1.5-.1-1.5.7 0 .9-.5.5-1.2-1-1.6-1.1-8.9-.1-11.1.4-.9.4-1.7-.1-1.7-1 0-.9-3.6.1-4.6 1.2-1.2.8-2.6-.5-1.7-.7.4-.5-.5.5-2 1.1-1.7 1.3-2.5.4-2.1-1.4.5-1.7-5.2-.3-7.4.4-.7.4-1.2-.1-1.2-1 0-.9-10.2.1-11.8.4-.7.3-1.2-.2-1.2-1 0-.9-3.6.1-4.6 1.2-1.2.8-2.6-.5-1.7-.7.4-.5-.5.5-2 1.1-1.7 1.3-2.5.4-2.1-1.4.5-1.7-5.2-.3-7.4.4-.7.3-1.2-.2-1.2s-.7-1.1-.4-2.5c.2-1.4.9-2.2 1.6-1.9.6.3.3-.1-.6-.9-1.6-1.3-1.6-1.5 0-3.1s1.6-1.7-.3-1c-1.8.7-1.8.6-.6-.9 1-1.3 1.1-1.7.1-1.7-.9 0-.7-.7.5-2 1.3-1.4 1.4-1.9.4-1.5-1 .4-1.4-.3-1.4-3 0-1.9.4-3.5.8-3.5.5 0 .5-.6.1-1.2-1.2-1.9-1.2-4.8-.1-4.8.5 0 .4-.7-.3-1.5-1-1.2-1-1.5.1-1.5 1 0 1-.3.1-1.2-.8-.8-.8-1.7-.1-3.1.6-1.1.7-1.7.2-1.4-.7.5-.8-1.1-.4-5.6.1-.5.7-.5 1.4-.2.6.4.4 0-.5-.8-1.4-1.1-1.5-1.6-.5-2.7.9-1 .9-1.4-.1-1.7-1-.4-.9-1 .5-2.6 1-1.1 1.2-1.7.6-1.3-1.5.8-1.4 1.1-1.7-7.9-.1-3.9.2-7.6.7-8.3.6-.8.5-1.2-.3-1.2-1 0-1-.3 0-1.5.7-.8.8-1.5.3-1.5-1 0-1-6 .1-7.8.4-.7.2-1.2-.5-1.2-.8 0-.8-.4.1-1.5 1-1.2 1-1.5-.1-1.5-1.2 0-1.2-.2-.1-.9.8-.4 1.4-1.2 1.4-1.6 0-.4-.6-1.2-1.4-1.6-1-.7-1-.9 0-.9s1-.5.2-2c-.8-1.4-.8-2 0-2s.8-.6 0-2c-.6-1.2-.7-2-.1-2 .5 0 .7-1 .3-2.2-.4-1.6-.2-1.9.9-1.4.8.4.6.1-.3-.7-1.6-1.3-1.6-1.5 0-3.1s1.6-1.7-.3-1c-1.8.7-1.8.6-.6-.9 1-1.3 1.1-1.7.1-1.7-.9 0-.7-.7.5-2 1.3-1.4 1.4-1.9.4-1.5-1 .4-1.4-.3-1.4-3 0-1.9.4-3.5.8-3.5.5 0 .5-.6.1-1.2-1.2-1.9-1.2-4.8-.1-4.8.5 0 .4-.7-.3-1.5-.9-1.1-.9-1.5-.1-1.5.7 0 .9-.5.5-1.2-1-1.6-1.1-8.9-.1-11.1.4-.9.4-1.7-.1-1.7-1 0-.9-3.6.1-4.6 1.2-1.2.8-2.6-.5-1.7-.7.4-.5-.5.5-2 1.1-1.7 1.3-2.5.4-2.1-1.4.5-1.7-5.2-.3-7.4.4-.7.4-1.2-.1-1.2-1 0-.9-10.2.1-11.8.4-.7.3-1.2-.2-1.2-1 0-.9-3.6.1-4.6 1.2-1.2.8-2.6-.5-1.7-.7.4-.5-.5.5-2 1.1-1.7 1.3-2.5.4-2.1-1.4.5-1.7-5.2-.3-7.4.4-.7.3-1.2-.2-1.2s-.7-1.1-.4-2.5c.2-1.4.9-2.2 1.6-1.9.6.3.3-.1-.6-.9-1.6-1.3-1.6-1.5 0-3.1s1.6-1.7-.3-1c-1.8.7-1.8.6-.6-.9 1-1.3 1.1-1.7.1-1.7-.9 0-.7-.7.5-2 1.3-1.4 1.4-1.9.4-1.5-1 .4-1.4-.3-1.4-3 0-1.9.4-3.5.8-3.5.5 0 .5-.6.1-1.2-1.2-1.9-1.2-4.8-.1-4.8.5 0 .4-.7-.3-1.5-1-1.2-1-1.5.1-1.5 1 0 1-.3.1-1.2-.8-.8-.8-1.7-.1-3.1.6-1.1.7-1.7.2-1.4-.7.5-.8-1.1-.4-5.6.1-.5.7-.5 1.4-.2.6.4.4 0-.5-.8-1.4-1.1-1.5-1.6-.5-2.7.9-1 .9-1.3-.1-1.7-.6-.3-.9-1-.5-1.6 1-1.6 1-5.8.1-6.3-.4-.3-.8-1.3-.8-2.2 0-2.5-4.6-7.1-7.8-7.8-1.5-.3-3.2-.7-3.7-.9-.6-.1-2.6.4-4.5 1.2zM309 330.1c0 .5.5.7 1 .4.6-.3 1-.8 1-1.1 0-.2-.4-.4-1-.4-.5 0-1 .5-1 1.1zM341 362.1c0 .5.5.7 1 .4.6-.3 1-.8 1-1.1 0-.2-.4-.4-1-.4-.5 0-1 .5-1 1.1zM357 378.1c0 .5.5.7 1 .4.6-.3 1-.8 1-1.1 0-.2-.4-.4-1-.4-.5 0-1 .5-1 1.1zM348.1 405.2c-7.1 3.5-6.6-5.4-6.5 124.7.1 64.7.3 118.3.5 119.1.6 2.2 3.8 6.5 4.7 6.4 1.6-.3 3.2.9 2.5 1.9-.4.6-.1.7.8.1 1.9-1.2 4.2-1.1 5.1.1.5.6.8.5.8-.3 0-.7.4-1.1 1-.7 1.3.8 8-6 8-8.2 0-1.1.5-2.4 1.2-3.1.9-.9.9-1.2-.1-1.2-.7 0-.9-.5-.5-1.2 1-1.6 1.3-4.8.4-4.8-.4 0-.4-1.8 0-4s.5-4 .1-4c-.3 0-.5-2.6-.4-5.7.1-3.2.2-5.8.3-5.8.6 0 .5-4.7 0-5-.6-.4-.6-7 0-7s.5-4.7 0-5c-.6-.4-.6-7 0-7 .1 0 .3-1 .4-2.3.2-1.2 0-2.2-.4-2.2s-.4-1.8 0-4 .4-4 0-4-.4-1.6 0-3.5c.5-2.1.4-3.5-.1-3.5-.6 0-.5-.9.1-2 .8-1.5.8-2-.1-2-.8 0-.8-.4.1-1.5 1-1.2 1-1.5 0-1.5-.8 0-.9-.4-.4-1.3.9-1.1 1-2.6.4-5.2-.2-1.2-.2-11 0-11 .7 0 .5-4.7-.2-5.1-.5-.3-.4-1.2.3-2 .6-.8.7-1.4.2-1.4-.7 0-.8-1.5-.3-4 .4-2.2.5-4 .1-4-.3 0-.5-2.6-.4-5.7.1-3.2.2-5.8.3-5.8.6 0 .5-4.7 0-5-.6-.4-.6-7 0-7s.5-4.7 0-5c-.6-.4-.6-7 0-7 .1 0 .3-1 .4-2.3.2-1.2 0-2.2-.4-2.2s-.4-1.8 0-4 .4-4 0-4-.4-1.6 0-3.5c.5-2.1.4-3.5-.1-3.5-.6 0-.5-.9.1-2 .8-1.5.8-2-.1-2-.8 0-.8-.4.1-1.5 1-1.2 1-1.5 0-1.5-.8 0-.9-.4-.4-1.3.9-1.1 1-2.6.4-5.2-.2-1.2-.2-11 0-11 .7 0 .5-4.7-.2-5.1-.5-.3-.4-1.2.3-2 .6-.8.7-1.4.2-1.4-.7 0-.8-1.5-.3-4 .4-2.2.5-4 .1-4-.3 0-.5-2.6-.4-5.7.1-3.2.2-5.8.3-5.8.6 0 .5-4.7-.1-5-.4-.3-.5-2.2-.3-4.3.6-6.3-4.8-13-11.1-13.6-1.4-.2-4.3.5-6.4 1.6zM830.9 410.7c-5.8 2.3-7.7 6.9-7.5 18.3.1 5.2-.3 10.1-.7 10.7-.5.7-.6 1.3-.1 1.3s.9 1.8.9 3.9c.1 2.3-.3 3.7-.9 3.4-.5-.4-.6-.1-.2.6 1.1 1.8 1.5 6.1.5 6.1-.5 0-.5 1-.1 2.2.6 2 .8 19.4.2 22.3-.1.5-.1 1.4 0 2 .7 3.1.6 5.5-.1 5.5-.5 0-.5 1-.1 2.2.6 2 .8 19.4.2 22.3-.1.5-.1 1.4 0 2 .7 3.1.6 5.5-.1 5.5-.5 0-.5 1-.1 2.2.6 2 .8 19.4.2 22.3-.1.5-.1 1.4 0 2 .7 3.1.6 5.5-.1 5.5-.5 0-.5 1-.1 2.2.4 1.3.6 9.7.5 18.8-.3 19.6-.3 20.8 0 24 .2 1.4-.1 3.1-.6 3.7-.5.7-.6 1.3-.1 1.3 1.2 0 1.1 9.3-.1 10.2-.7.5-.7.8 0 .8.6 0 .9 4.6.7 12.2-.2 14.5-.2 16.5.1 19.8.2 1.4-.1 3.1-.6 3.7-.5.8-.6 1.3 0 1.3.4 0 .8 1.8.7 4 0 2.2.1 3.8.3 3.6.2-.2 1.7.9 3.3 2.5 1.6 1.6 3.6 2.9 4.5 2.9.9 0 1.4.4 1.1.9-.6.9 6.8-.4 8.6-1.5.5-.3 1.7 0 2.6.7 1.5 1.1 1.5 1.1.4-.1-1-1.2-.9-1.8 1-3.3 1.3-1 1.6-1.6.8-1.2-1.3.6-1.3.5 0-.7 1-.9 1.5-3.2 1.5-6.8 0-3 .4-6.1.9-6.8.5-.7.5-1.2 0-1.2-1.1 0-1.1-9.1 0-10.8.4-.7.4-1.2-.1-1.2-.4 0-.8-2.3-.8-5 0-2.8.4-5 .9-5s.4-.6-.1-1.3c-.6-.6-.9-2.1-.6-3.2.8-4.3 1-6.4.4-6.1-.5.4-.6-5.1-.1-6.4.1-.3.1-1 0-1.5-.7-3.3-.6-5.5.3-5.5.5 0 .3-.8-.4-1.7-1.2-1.4-1.2-1.6 0-.8 1 .6 1.2.4.7-.4-1.2-1.9-1.4-6.1-.3-6.1.5 0 .4-.7-.3-1.5-1-1.2-1-1.5 0-1.5.9 0 1-.3.1-1.3-.8-1-.7-1.7.1-2.5.7-.7.8-1.2.3-1.2-.6 0-1-3.6-1-8s.4-8 .9-8 .3-.6-.3-1.4c-.9-1-.9-1.6-.1-2.1s.8-1.1.1-1.9c-.7-.9-.7-1.6.1-2.4.9-.9.9-1.2-.1-1.2-1.1 0-1.1-.3-.1-1.5.7-.8.8-1.5.3-1.5-1.1 0-1.1-2.9.1-4.8.4-.6.4-1.2-.1-1.2-.4 0-.8-3.1-.8-7 0-3.8.4-7 .9-7s.3-.6-.3-1.4c-.9-1-.9-1.6-.1-2.1s.8-1.1.1-1.9c-.7-.9-.7-1.6.1-2.4.9-.9.9-1.2-.1-1.2-1.1 0-1.1-.3-.1-1.5.7-.8.8-1.5.3-1.5-1.1 0-1.1-2.9.1-4.8.4-.6.4-1.2-.1-1.2-.4 0-.8-3.1-.8-7 0-3.8.4-7 .9-7s.3-.6-.3-1.4c-.9-1-.9-1.6-.1-2.1s.8-1.1.1-1.9c-.7-.9-.7-1.6.1-2.4.9-.9.9-1.2-.1-1.2-1.1 0-1.1-.3-.1-1.5.7-.8.8-1.5.3-1.5-1.1 0-1.1-2.9.1-4.8.4-.6.4-1.2-.1-1.2-.4 0-.8-3.1-.8-7 0-3.8.4-7 .9-7s.3-.6-.3-1.4c-.9-1-.9-1.6-.1-2.1s.8-1.1.1-1.9c-.7-.9-.7-1.6.1-2.4.9-.9.9-1.2-.1-1.2-1.1 0-1.1-.3-.1-1.5.7-.8.8-1.5.3-1.5-1.1 0-1.1-2.9.1-4.8.4-.6.3-1.2-.1-1.2-.7 0-.9-4.4-.3-6 .1-.3.1-1 0-1.5-.7-3.2-.6-5.5.2-5.5.5 0 .6-.5.2-1.2-1.1-1.8-1.1-7.8-.1-7.8.5 0 .4-.7-.3-1.5-.9-1.1-.9-1.5-.1-1.5.7 0 .9-.5.4-1.3-.4-.6-.9-2.3-1.1-3.7-.3-2.6-3.4-6.5-6.3-8-3-1.7-6.4-1.8-10-.3zM405 426.1c0 .5.5.7 1 .4.6-.3 1-.8 1-1.1 0-.2-.4-.4-1-.4-.5 0-1 .5-1 1.1zM421 442.1c0 .5.5.7 1 .4.6-.3 1-.8 1-1.1 0-.2-.4-.4-1-.4-.5 0-1 .5-1 1.1zM453 474.1c0 .5.5.7 1 .4.6-.3 1-.8 1-1.1 0-.2-.4-.4-1-.4-.5 0-1 .5-1 1.1zM565 586.1c0 .5.5.7 1 .4.6-.3 1-.8 1-1.1 0-.2-.4-.4-1-.4-.5 0-1 .5-1 1.1zM597 618.1c0 .5.5.7 1 .4.6-.3 1-.8 1-1.1 0-.2-.4-.4-1-.4-.5 0-1 .5-1 1.1zM613 634.1c0 .5.5.7 1 .4.6-.3 1-.8 1-1.1 0-.2-.4-.4-1-.4-.5 0-1 .5-1 1.1z"/><path d="M838.6 663.8c-.3.5.1.9.9.9s1.2-.4.9-.9c-.3-.4-.7-.8-.9-.8-.2 0-.6.4-.9.8zM653.7 674.5c-.4.8-.3 1.6.1 1.9.4.3.9-.4.9-1.5.2-2.3-.3-2.5-1-.4zM709 730.1c0 .5.5.7 1 .4.6-.3 1-.8 1-1.1 0-.2-.4-.4-1-.4-.5 0-1 .5-1 1.1zM757 778.1c0 .5.5.7 1 .4.6-.3 1-.8 1-1.1 0-.2-.4-.4-1-.4-.5 0-1 .5-1 1.1zM789 810.1c0 .5.5.7 1 .4.6-.3 1-.8 1-1.1 0-.2-.4-.4-1-.4-.5 0-1 .5-1 1.1zM805 826.1c0 .5.5.7 1 .4.6-.3 1-.8 1-1.1 0-.2-.4-.4-1-.4-.5 0-1 .5-1 1.1z"/></svg>